# xmcd
#
# Track frame offsets: 
#        150
#        13919
#        27736
#        40984
#        53566
#        64435
#        76525
#        90792
#        103919
#        115416
#        128892
#        140864
#        153382
#        166090
#        179102
#        192279
#        206414
#        219871
#        233494
#        244660
#        256684
#        268406
#        281891
#        293845
#        308132
#
# Disc length: 4296 seconds
#
# Revision: 0
# Processed by: cddbd v1.5.2PL0 Copyright (c) Steve Scherf et al.
# Submitted via: ExactAudioCopy v0.99pb5
#
DISCID=6d10c619
DTITLE=Various Artist - A Cowboy's Life Is Good Enough For Me [CD2)
DYEAR=2004
DGENRE=Country
TTITLE0=Jesse Rogers/Yellow Rose Of Texas
TTITLE1=Kenny Roberts/Wagon Wheels
TTITLE2=Slim Clark/Trailrider's Moon
TTITLE3=Red River Dave/Is The Range Still The Same Back Home
TTITLE4=Rosalie Allen and The Black River Riders/Shoot Him High Paw
TTITLE5=Hank Snow (as Hank, The Singing Ranger)/At The Rainbow's End
TTITLE6=Frank Luther and Carson Robison (as The Black Brothers)/Midnight
TTITLE6=On The Colorado
TTITLE7=Goebel Reeves (as The Texas Drifter)/Little Joe The Wrangler
TTITLE8=Gene Autry/Blue Montana Skies
TTITLE9=Big Bill Campbell and The Rocky Mountain Rhythm/I'm Rockin' To T
TTITLE9=he Rockies
TTITLE10=Ezra Paulette and His Beverly Hillbillies/When The Coyote Howls
TTITLE10=At Twilight
TTITLE11=Billy Williams/Yippi Ki Aye
TTITLE12=Wilf Carter (Montana Slim)/Beautiful Girl Of The Prairie
TTITLE13=Rex Allen/Arizona Waltz
TTITLE14=Smoky Dawson with his Rocky Canyon Boys/The Range In The West
TTITLE14=ern Sky
TTITLE15=The Hillbillies/Ranch In The Rockies
TTITLE16=O'Leary Sisters (Ma and Theresa)/A Pair Of Silver Spurs
TTITLE17=Elton Britt/Over The Trail
TTITLE18=Laurie Croisette/The Cowboy
TTITLE19=Reg Lindsay/Down By The Old Sliprail
TTITLE20=Buddy Reynolds/Blue Canadian Rockies
TTITLE21=Sons Of The Pioneers/Land Beyond The Sun
TTITLE22=Les Wilson/Shadows On The Trail
TTITLE23=Frank Ifield/A Mother's Faith
TTITLE24=The Legarde Twins (Tom and Ted)/There's A Bridle Hanging On The
TTITLE24=Wall
EXTD=
EXTT0=
EXTT1=
EXTT2=
EXTT3=
EXTT4=
EXTT5=
EXTT6=
EXTT7=
EXTT8=
EXTT9=
EXTT10=
EXTT11=
EXTT12=
EXTT13=
EXTT14=
EXTT15=
EXTT16=
EXTT17=
EXTT18=
EXTT19=
EXTT20=
EXTT21=
EXTT22=
EXTT23=
EXTT24=
PLAYORDER=
